<svg width="18" height="18" viewBox="0 0 18 18" fill="none" xmlns="http://www.w3.org/2000/svg">
<path d="M14.25 8.25H5.8725L9.5325 4.59C9.825 4.2975 9.825 3.8175 9.5325 3.525C9.46312 3.45547 9.3807 3.40031 9.28997 3.36267C9.19924 3.32504 9.10198 3.30566 9.00375 3.30566C8.90553 3.30566 8.80827 3.32504 8.71754 3.36267C8.62681 3.40031 8.54439 3.45547 8.475 3.525L3.5325 8.4675C3.46298 8.53688 3.40782 8.6193 3.37018 8.71003C3.33254 8.80076 3.31317 8.89802 3.31317 8.99625C3.31317 9.09447 3.33254 9.19173 3.37018 9.28246C3.40782 9.37319 3.46298 9.45561 3.5325 9.525L8.475 14.4675C8.54444 14.5369 8.62687 14.592 8.7176 14.6296C8.80832 14.6672 8.90556 14.6865 9.00375 14.6865C9.10195 14.6865 9.19919 14.6672 9.28991 14.6296C9.38064 14.592 9.46307 14.5369 9.5325 14.4675C9.60194 14.3981 9.65702 14.3156 9.6946 14.2249C9.73218 14.1342 9.75152 14.0369 9.75152 13.9387C9.75152 13.8405 9.73218 13.7433 9.6946 13.6526C9.65702 13.5619 9.60194 13.4794 9.5325 13.41L5.8725 9.75H14.25C14.6625 9.75 15 9.4125 15 9C15 8.5875 14.6625 8.25 14.25 8.25Z" fill="#6D6E9C"/>
</svg>

