<svg width="18" height="18" viewBox="0 0 18 18" fill="none" xmlns="http://www.w3.org/2000/svg">
<path d="M16.6377 8.87696L9.39727 1.6418C9.34514 1.58957 9.28322 1.54812 9.21505 1.51985C9.14688 1.49157 9.07381 1.47702 9.00001 1.47702C8.92621 1.47702 8.85313 1.49157 8.78497 1.51985C8.7168 1.54812 8.65488 1.58957 8.60274 1.6418L1.36231 8.87696C1.15138 9.0879 1.03185 9.37442 1.03185 9.67325C1.03185 10.2938 1.53634 10.7982 2.15684 10.7982H2.91974V15.9609C2.91974 16.2721 3.1711 16.5234 3.48224 16.5234H7.87501V12.5859H9.84376V16.5234H14.5178C14.8289 16.5234 15.0803 16.2721 15.0803 15.9609V10.7982H15.8432C16.142 10.7982 16.4285 10.6805 16.6395 10.4678C17.0772 10.0283 17.0772 9.31641 16.6377 8.87696Z" fill="#6D6E9C"/>
</svg>

